/* XPM */
static const char *olivee[] = {
/* columns rows colors chars-per-pixel */
"64 64 230 2 ",
"   c #1A1C13",
".  c #18160E",
"X  c #251D13",
"o  c #23190E",
"O  c #1D2316",
"+  c #232216",
"@  c #2B2316",
"#  c #232619",
"$  c #242B1B",
"%  c #2B2C1D",
"&  c #2D2519",
"*  c #342C1C",
"=  c #3A2C1B",
"-  c #372716",
";  c #28311E",
":  c #38301E",
">  c #352D20",
",  c #2C3522",
"<  c #2E3925",
"1  c #273421",
"2  c #343523",
"3  c #3B3423",
"4  c #343B26",
"5  c #3C3A25",
"6  c #353D29",
"7  c #3B3D29",
"8  c #2B2C20",
"9  c #412E1B",
"0  c #44321E",
"q  c #4A341E",
"w  c #433522",
"e  c #4A3621",
"r  c #443A25",
"t  c #4C3B25",
"y  c #443D2A",
"u  c #4B3C29",
"i  c #533C24",
"p  c #523E29",
"a  c #593F26",
"s  c #36422A",
"d  c #3C442C",
"f  c #3D492E",
"g  c #3E4A31",
"h  c #3E4530",
"j  c #43432C",
"k  c #4C432C",
"l  c #43492E",
"z  c #4C492E",
"x  c #414026",
"c  c #54432B",
"v  c #5B452C",
"b  c #53492E",
"n  c #5C492E",
"m  c #594126",
"M  c #4C4531",
"N  c #434D32",
"B  c #4C4C33",
"V  c #444631",
"C  c #534B33",
"Z  c #5C4C33",
"A  c #584A35",
"S  c #465135",
"D  c #4B5335",
"F  c #4C5539",
"G  c #4D5A3A",
"H  c #545236",
"J  c #5C5235",
"K  c #54563A",
"L  c #5C543A",
"P  c #545B3C",
"I  c #5B5C3C",
"U  c #63492D",
"Y  c #65492B",
"T  c #72522F",
"R  c #634D32",
"E  c #6A4E30",
"W  c #655134",
"Q  c #6B5235",
"!  c #63553B",
"~  c #6C563A",
"^  c #645B3D",
"/  c #6C5B3C",
"(  c #6D5836",
")  c #715434",
"_  c #725739",
"`  c #735B3B",
"'  c #7A5D3C",
"]  c #775937",
"[  c #69502F",
"{  c #54613E",
"}  c #5B613F",
"|  c #68613F",
" . c #73613E",
".. c #7C613F",
"X. c #5C5D41",
"o. c #565D40",
"O. c #635D41",
"+. c #6C5C42",
"@. c #745D41",
"#. c #7A5F40",
"$. c #566241",
"%. c #5C6443",
"&. c #5E6945",
"*. c #5E6A48",
"=. c #636343",
"-. c #6B6343",
";. c #636B46",
":. c #6C6945",
">. c #646C49",
",. c #6B6C4A",
"<. c #696549",
"1. c #746343",
"2. c #7C6343",
"3. c #736A45",
"4. c #7D6946",
"5. c #7C664A",
"6. c #746D4A",
"7. c #7B6C4B",
"8. c #756649",
"9. c #66714C",
"0. c #6A734D",
"q. c #73724D",
"w. c #7C734E",
"e. c #73784E",
"r. c #776C53",
"t. c #6C7551",
"y. c #6E7952",
"u. c #737552",
"i. c #7C7451",
"p. c #737C55",
"a. c #7C7B55",
"s. c #757E58",
"d. c #7B7C59",
"f. c #6E6450",
"g. c #825F3C",
"h. c #82623E",
"j. c #826644",
"k. c #836946",
"l. c #8B6B45",
"z. c #846C4B",
"x. c #8B6E4A",
"c. c #816748",
"v. c #82724C",
"b. c #8C724D",
"n. c #92744D",
"m. c #97754C",
"M. c #826E52",
"N. c #857352",
"B. c #8C7452",
"V. c #847B54",
"C. c #8C7A56",
"Z. c #847D5A",
"A. c #8C7C5B",
"S. c #89765A",
"D. c #937652",
"F. c #947A55",
"G. c #9A7C54",
"H. c #947D59",
"J. c #9A7E5A",
"K. c #9A7750",
"L. c #916E47",
"P. c #A17F56",
"I. c #917E62",
"U. c #77815A",
"Y. c #7C835C",
"T. c #7D875D",
"R. c #7E8860",
"E. c #83845C",
"W. c #8B825B",
"Q. c #85855B",
"!. c #93825C",
"~. c #9B835C",
"^. c #9A865C",
"/. c #A2845C",
"(. c #A8885B",
"). c #838B63",
"_. c #8C8C63",
"`. c #8A8764",
"'. c #948363",
"]. c #9C8562",
"[. c #938B63",
"{. c #9C8A64",
"}. c #998C6A",
"|. c #8B946A",
" X c #8A9268",
".X c #94946B",
"XX c #9C936C",
"oX c #95966B",
"OX c #959C72",
"+X c #9B9C73",
"@X c #9A9674",
"#X c #9A8C74",
"$X c #A28761",
"%X c #A38B64",
"&X c #AA8C64",
"*X c #A48E6A",
"=X c #A98E69",
"-X c #A4936D",
";X c #AC936B",
":X c #A79569",
">X c #B4966C",
",X c #B6976A",
"<X c #A49272",
"1X c #A39B73",
"2X c #AD9A74",
"3X c #AB9776",
"4X c #B49B73",
"5X c #B69C76",
"6X c #B28F63",
"7X c #9AA176",
"8X c #A7A278",
"9X c #B4A47C",
"0X c #BCA47C",
"qX c #BBA378",
"wX c #C19F71",
"eX c #C3A67B",
"rX c #BCA983",
"tX c #B6AA86",
"yX c #B9B08B",
"uX c #AFAB89",
"iX c #B19F85",
"pX c #C3AB83",
"aX c #C5AC85",
"sX c #CCB58C",
"dX c #C6B288",
"fX c #C9B894",
"gX c #D1B78F",
"hX c #CFC09D",
"jX c #D7C7A5",
"kX c #CEC4A5",
/* pixels */
"m Q C s r X w F.,.$.;.;.s r H.2.z.B.i.).0.Z L ].rX`.%.!.s.w.2X'.}.2X@XT.[.! r.dX;X=.o.E.T.<.*XB.F.$X6.s.U.,.=.6.H.+.H ` B j @.Q ",
"m R V g , % * F.W.&.0.s.{ 5 j.2.j.x.p. Xs.S N -XpX_.p.p.|.o.H.*X-X>X0.|.p.>.i.aX5XY.*.Y.|.,.'.5.5.F.,.Y.Y.0.>.W.=XL h j D g L Q ",
"p * S G N f v 2.:Xp.q.}.u.D k z.B.O.R.).|.p.o.{.dX.X|.OX+Xy.B S.'.L U.|.|.R.Z.pXrXoXR.OXOXy.D i.N.B >.).+X).d.2X;Xv.$.$.&.$.7 3 ",
"L 6 G &.&.N u Q &X[.7.M >.;.D 1.A.>.).T.`..Xq.4XeXyX_.9XrX X9.-X9Xp.|.oXOX X`.5XsX8X7XuXOX Xt.!.!.t.).).r.`._.0XJ.2.%.p.9.;.N B ",
"B N F 7.F.C t ) j.'.W.>.0.t.;.C u.R.).R.u.@X!.wXeXyX).tXjX+XT.i.`.|.7XyXfXoX<XaXsXyXyX+XOXOXR.6.r.T. XT.,.W.2X;X&XN.,.:XXXt.{ D ",
"u.F k z./ g * E E ` }.).p.p.0.A.-X).).R.Y.9X,X,X>X-XU.r.fX9XOXrXfX8XOXjXXXY.W.&XqXgXsX1XOXOXOXtX5X.X X).Y.-XqX~.~ z.K y 2Xu.$.q.",
"v.%.y z.{.P , > v w z.oXs.y.Z.;XeX1X X).`.5Xz.S.<.K p.`.pX*XoXpXsXuXOXsXyX|.&.C N.c.eX8X7XOX8XrX4X+X X)..X-X~ 7.M M P *.-XS.&.N.",
"1.%.3 @.;Xd.N ; $ 5 _ XXU.y.<.H.%X.X XY.}.%X7.D %.Y.+XyXeXXX`.2X5X+XOXpXkXuX X>.N +.%X9X+XOX.X2X;X`. X X1XD.j 6 F F p.XX%X8.&.z.",
"z.i.k ~ ~.;X<.g g j ' B.W.a.!.%X4X2X|.R.^.4XW.s.).a.4XsX0X1X9XpXsXdX+X:XjXjXuX Xs.u.2X4X9X8X1X2X-XXX+XXX;XJ.X.&.;.,.4X;Xb.1.i.B.",
"k.@.W 1.D.n.I P G < c j.C.C.F.J.=X%XXX{.D.M.t. X|.&.F.5XdX1X0XpXgXdX8X0XsXaX.X7X X;.z.&X$X{.0X5X2X4XXX~./.8.&.y.y.=.z.D.~.b.5.2.",
"j.~ 2.x.l.b.=.%.$.N 3 j.;X*XJ.~.;X~.;XsX{.L E. X|.q.2.~.rXdX;X0XsX;XdXhXrX<X_.7XoXd.! iXjX5X{.-X;X].-XfX#XK p.s.s.t.O.F.F.%X2.8.",
"' 2.k.j.x.c k ,.&.z % R m.5X*XJ.=X$X,X,X~.+.<..X|.=.y ].>XdXrX0XpXqXsX0X3X<.E.7X.Xa.o.r.2XeX*X{.%X~.qX<Xf.K <.Y.T.X.2 A.%XF.b.~ ",
"Q ` W D./ ^ K K %.j L Z x.2.<X~./.G.k.;XM.[.d.E._.,.A.H.4X].rX4X;X5X].fX1X2X+X|.`.Y.XXr.2XF.=XH.J.$XF.=XN.A.P p.p.P <.M.%X..z.` ",
"m ..z.m Q z.q.D K B _ @.v z.%XH.F.G.].8.F.%X+Xa.W.s.b.z.A <X;X:X/.%X<XO.1.D.:X_.`.`.B.2.Z B.H.~./.J.B.Q 2.l.,.t.,.;.x.' k 1.F.~ ",
"a ` H.> n 0 I K I N * c w G.;XH.B./.-X7 @.! ).E.W.s.M / j 3XfX~.~.aXtXN k./ _.XX_.Y.C _ C 3X4XF.F.=X3Xr R y >.0.0.;.k v > N.B.Z ",
"m t y 7 ^ d %.^ A.$.d Z 5 u +.B.b.~ L I N.,.).).1XR.P 4.K C S.%X$XN.<.>.D.].+X+X.X).!.D.=.+.5.B.D.7.~ L / o.s.p.t.p.K ` y y c Z ",
"i ~ , , 4.=.B ~ 5XE.B / 4 % 2.2.2.2.V K ^.Z.d.XXfXOXV.n.I 7 A.J.F.A.F ;.~.W.oXyXtX XC.G.%.d z.@.2.z.7 H 3.>.u.XXV.0.<.B.V # ~ n ",
"e c f , z.V.d W /.{.H 1.S 2 Z j.` Z o.o.~.w.:.%X0XXX6.G.,.D ! B.B.1.;.>.~.|._.rX9X|.W./.>.%.1.2.2.2.P I z.0.E.qX^.;.6.H.B d c u ",
"n y s < ! ;XP W l.k.| 1.P d y l.x.B $.$.S.tXq.G./.{.W.~.p.&.X.~.~.q.y.0.C.1X[.;X&X.X8X^.0.9.^ b.z.-.$.%.4.a.a.G.k.>.^.M.N S 2 R ",
"n z f f c &X%.w Q J 4.3.0.{ j Q j.=.*.u.'.fXY.W Q v.:X{.|.y.%.B.F.q.s.).!.9Xq.' ` Q.dXA.U.y.I ' ' K 9.0.1.C.%.2.R >.>X! I P d R ",
"= 4 D ' U 2.[.V k | j.x.tXs.l R @.&.,.J.'.2XtXn m ^.6X*XhX+XI +.i.0.Y.kX*X>X+XA L tX4X'.tXE.&.C A &.U.8Xb.G.6.k k 1X].` b.q.f * ",
"z f W ' 3 @ z.C.v.b.r v D.[.G L ,.&.z.G.C M 2X5X,X6XJ 7 %X2X0.O.q.p.[.dX,.! 0X9XdX9XB k 4X1X9.=.3.9.XXeX` c G.z.{.2Xv - v z.F 7 ",
"^ l U m.O.$ & v _ c 6 / L.F.&.3.a.%.x.(.W.F C 1.D.3.G a.6X/.p.V.!.s.~.wX8XI L S.I.I %.W.pX;Xt.w.v.0.%X,XF.2 c x.B.A r d z.k.K H ",
"/ x v R j s k k z.;X,.W g.v.0.+.a.%.j.2.7.t.,.6.4XdX).L j.D.q.!.^.0.b.B.7.p.iX3XC.V.p.^ x.F.s.B.b.e.b.h.Z o.#XJ.+.@.B D ' ..C -.",
"U Z q % d N / x./.,X;X3 e / W.^ 8.W.~ C ;.p.i.4X,X5X9XK k 2.!.F.F.[.` Z F W.eXaXpX;XE.=.Q 4.[.B.j.W.` R j [.4X&X/.v.P F 2 v Z 1.",
"= R w 4 D B W l.&X%X/ B 2 C ~ ,.L +.C %.p.0.v.6XpX4XG.0.N +.7.5.M.v.-.} 0.b.5XjXfX4XQ.y.C 1.Z.O.L i.W y F z.4XaX$Xj.w.;.N 2 Q v ",
"9 i C D D / _ E v *X7 N G L K W.d.D =.s.s.a.D.K.c.<XL 0.;.q.=.'.<X,.,.U.s.L =X5.].5X[.U.,.3.,.`.[.I J I &.J $XL 1.x.n.6.G V c t ",
"B.b C P N n _ ` u  .P $.P 1.N.^.9XZ.w.U.y.7.G.x.p r.,.U.u.i.i.9XaXA.V.E.T.=.5.M j.&XC.p.0.:.`.tXtXu.-.;.9.I Q 8 2.x.z.' P K H C.",
"rX../ } g = ) 9 = c $.&.I B.m.&XsX*X&XE.t.H x.c r @.p.Y.d.=X:XpXfXqX0X_.E.;.+.B M G.3.p.Z.^.2XfXdX:X/.6.0.I m 2 w k.R 3 P -.B.%X",
"aX] h.=.g % Y * X 4 %.$.L D.n./.sXJ.&XW.y.K 2.V h B s.s.a.;X/.eXsX&X5X`.T.0.M F j x.:.y.}.,XP.5X,Xm.(.F.0.%.2 2 % ` k N I z.2.F.",
"(.Q W B N 3 U C < N { G 7 ` ~ L.(.z.j.>.y.%.` w.&.;.p.y.F +.n.(.6XP.N.>.).U.&.&.X.2.6.U.X.~ c.G.n.2._ H 9.0.F N z ` C P P Z v j.",
"T ] 8.N C v W ^ N F G P 7 ~ 2.h.l.F.C.;.;.z.2.F.>.9.p.t.P N.$Xm.K.6X~.u.T.T.s.;.B.x.A.`.%.N.F.l.l.D.N.P t.t.$.D / j.` 4.S L ' U ",
"i ] J N k w v z.%.F G P N t k.U Q D.-.>.&.W ' ~.E.9.0.0.&.! J.x.l./.1.s.).R.s.,.F.x.~ i.t.1.n.g.g.x.8.;.p.>.&.K 2.@.c ! D B ~ i ",
"q n j S , # w D.a.G P %.F 5 ..' 2.z.X.9.&.7 u G.[.t.0.t.;.B x.z.b.x.I s.U.s.p.'./.+.d %.p.^ x._ ) 2.^ ;.0.&.$.-.D.Z 2 d F d v i ",
"i 5 N D s , * #.%X=.=.A.P 7 r R @.C $.0.s.P 5 b.=Xt.a.XX0.F L 2.j./ ;.U.1X_.a.>X-X<.&.s.p.P C ` _ c K 0.[.q.P N.D.Z D S G N 5 e ",
"c 4 N D N 4 p Q &XZ.^ C P S 4 / M.G 9.;.Z.d.+.j.6X[.8.Z ,.;.f 7.N.F p.t.O.S.[.qX%Xu.0.N.0.>.V 4.z.N &.;.A / =.=Xk./ H F P %.6 * ",
"5 d N I b.j t ] l.%Xb.K P P N C <.*.t.;.O.Z.L G./.!.7.I 0.0.&.=.6.0.Y.p.%.v.~.(.(.V.w.-.y.p.;.O.-.;.0.9.D ~ ~./.x.! C H.C.7.g , ",
"<.d N 4.` 2 t E E x./.,.$.%.F / V.>.p.9.O.!.7.K.G.;XH.q.p.s.p.C.!.U.Y.s.V.G.&XG.G.>XF.6.p.p.>.V.B.;.0.9.:.D./.j.k.B.H m D.B.S F ",
"k.D 6 ` 4.f # - i a k.V.{ $.=.D.%Xd.0.;.,.&X2.R ` @.x.{.0.0.W.%X&X[.p.t.V.$Xz.z.+.+.G.w.t.0.u.$X/.a.0.;.w.F.2.R r Z j C b.~ N 3.",
"' L 7 Q F.%.< # @ = U C.%.%.H F.%Xa.9.&.7.l.L % % k z.!.q.0.-.=X;Xw.0.;.v.G.L x 7 B z.V.p.p.q.D.n.<.0.9.C.` u 5 4 7 F 6.x.Q D ` ",
"' / 4 R n.^.L < $ : ` 2.w.6.<.b.H.E.d.0.2.n.L D N 3 j.H.!.[.a.~.%XW.E.Z.F.G.J G P L F.N.Q.Q.`.D.m.w.a.V.z.B.J f S K <X$Xj.Z ^ ` ",
"] ! k Z n.l.H d d $ v ` v.4.J.F.%X%Xi.V.h.] K &.&.l n n.v.B.].~.$X=XC.B.n.@.K ;.;.B @.b.v.V.*X/.G.F.6.4.B.7.f { { F 2.j...! L ` ",
") Z W j.j.n./ S S 5 = 2.,XF.b.B.F.b.!.0XH.n ;.;.;.} k B.dX%XF.~.$X~.*XaX'.M 0.0.9.;.C =X0XW.C./.m.z.H.;XF.k F { { P z.j.Q 2.1.W ",
"U R ..` k.k w I H w * U h./.B.k.x.b./.$X].C I 0.;.I j W &X4XF.~.~.~.qX;XJ.C H q.u.L u 2.,X,XB.b.x.B.>X/.b.C L %.=.B 3 2.R ~ x.R ",
"n U m ` Q j d B b 2 J t ] ` ~.2.j.G.2.b./ ^ K X.=.B 7.C J.j.F.B.b.F.B.=Xz.z.H O.=.B 2.~ &Xx.b.' ..F.B.F.2.2.y H K 6 3 Z z.W Q v ",
"i v Q - e Q -.7 k x R t v ' B.5.j.n.N.R W z.W.B K D 2.Z v B.z.b.z.b.J.! W ~ -.^ ^ I Q R v 7.2.....j.Q R ` ' B C l D C.W R A v c ",
"0 U 2.% - = b j z 2 * = @ ' D...] m.~.* p 0  .K I N 2 r % D.G.z.k./.~.2 m p } -.3.I p p 3 ~.G.' ' 2.B.& i 5 G H D F Z e * 2.~ t ",
"0 e w 2 t 3 4 b 4.f $ 5 % = R ~ E U u > / j P >.u.&.N Z j m #.k.j.2.c j ( H =.N.i.%.v Q y p R ' ` z.Z 5 n H &.7.,.D % t 5 m t t ",
"q 0   $ n Z f Z D.-.l z % + v n m U # 2 b.7.&.a.-X0.P / x * E ' ` E % l ` I <.2X1X-.`  .6 % R Q R W 2 7 n B -.$XB.D ! ~ 5 + r 0 ",
"- 0 $ $ Z C d v ' 7.z Z 4 # t Q U w , 4 b.4.;.S.*XZ.}  .D d U ` _ v l S  .%.=.2X*X%.-.4.l 6 W Q Q R 6 j W D :.&Xb.D k 2.5 O w = ",
"- X ; $ C 7.4 t ] ! k b s ; k 2._ j s 6 2.^.I +.M.6.:. .G f r 2...y S D ! :.I b.z.I N.8.N d y R Q k d N W } I 2._ C ^ 2.2 1 O w ",
"- * < 4 r F.B - m y c b D 4 2 _ W j N N ! ;XP y R H v.3.} S 7 Q Q l G P / v.D R m I ~.-.P N B _ Q z S D W ^ D v e j H.! 7 s 2 n ",
"X # 5 W p ~ v.@ @ r U _ (.I % n n f K H.~ F.[.7 5 | n.b.qX:.d t Z S %.;XB.b.-.w x A.J.M.=X| 7 u c f P {.].k.B % @ -.H.R z.H , @ ",
"@ $ c U + + 2.1.n [ = w G.W., m m 6 / n.5 3 ~.!.v.j.r * D.F.D r B G 3.&XC r F.B.~.$Xy - 2.2.N 5 y f -.&Xv u 2.Z / %XA o 0 / 4   ",
"3 $ a Q k   + u v : O i ' 2.6 n Z 6 R x.8., 5 ` k.c s -.G.b.K k H G 2.G.V., M z.7.y < J ~...D C C l  .(.x.% 3 / z.L $ 2 1.' 7 $ ",
"b ; 9 9 * $ * * W H.H 0 v v d Z / 5 U R k f j Q /.0X,.5 _ j.K ^ ^ G ` ] C B =XA.<.I N k Q Q H ^ J S Q Q i j 8.+.c c 4 d R U % x ",
"0 k @ @ $ $ t ) h.D.7.+ X w J y L ! t 3 d N c n.&X/.~.4 : W | W ~ | n t 4 k.&X>X;XN.P 4 = U 3.^ C O.n t & 4.,X$Xx.Z d s @ 9 3 U ",
"o 0 * # , $ q T n.n.~ 5 # * k N f Z t d D N R L.(.J.Q B , c 1.Z Z -.b d l Q L.5X/.b.%.S : m 2.J H / c * 2 Z b.4Xb.n B f $ X c = ",
"% - * ; ; 3 q i t 2.& % 2 w N :.=.6 b D D ^ R h.R x.3 S f b y / / j b D N : j.A ~ k.v.I d c b ^ -.z t 5 f % z.+.Q R W B , * t   ",
"R - * 2 $ w q e @ q % 4 2 C I k.].I J D N k Q U 9 m f F l b J B.H.L J H D 2 n = Z ..~ l l b L *X].^ k d l 5 i & v U R r < 3 = c ",
"2.v 0 2 $ X 9 X . X , 4 5 7.Q b.=Xz.2.D f % m -   0 N D L ..m.;X0XF.x.L F 4 = - * _ k f K z.N.3X<X2.2.j f 2 0 @ X a w % 6 t W ` ",
"qXt i j $ o - . . O , , r 2.Y k.,X` j.I f % i &   $ D F J n.k.(.,Xx.G.1.D d O $ + v k N ! k.Q &XF.E ' n d 4   . . e - , 4 U U ~ ",
"K.* - $ $ X - -   $ , ; + v v T l._ U d f r i v 2 4 D D % W W k.l.~ R 4 F N 4 4 % a b D 2 t ` ' E Q i % d d $ + & q * , ; : - c ",
"- w 0 O * q 9 q # ; , ; O i a E Y Y c s x ` U W , s N P 4 c n Y E W W f P S f d y a ~ F d b R Q U W Z 4 f d < % e w w t ; * w - "
};
