/* XPM */
static const char *pink_brick_we[] = {
/* columns rows colors chars-per-pixel */
"64 64 180 2 ",
"   c #D6688D",
".  c #CD7190",
"X  c #CA7C95",
"o  c #DF779A",
"O  c #D57F9A",
"+  c #E97CA3",
"@  c #C38699",
"#  c #D8859F",
"$  c #D1889F",
"%  c #D38CA2",
"&  c #DC8CA6",
"*  c #CF91A3",
"=  c #CE99A7",
"-  c #D291A5",
";  c #D595A8",
":  c #DB94AB",
">  c #D69BAC",
",  c #DA9CAE",
"<  c #DC9BB0",
"1  c #E585A4",
"2  c #EA80A5",
"3  c #E388A5",
"4  c #ED86A9",
"5  c #E38CAA",
"6  c #ED8BAC",
"7  c #F28EAF",
"8  c #E492AD",
"9  c #ED93AE",
"0  c #F091AF",
"q  c #F38DB0",
"w  c #ED95B2",
"e  c #E49BB2",
"r  c #EC9BB5",
"t  c #EC9EB8",
"y  c #F494B4",
"u  c #F895B5",
"i  c #F39BB6",
"p  c #F59DB8",
"a  c #F89CBA",
"s  c #DFA4B5",
"d  c #DEADBA",
"f  c #E4A2B5",
"g  c #EAA3B6",
"h  c #EBA8B7",
"j  c #E5A4B9",
"k  c #ECA4BA",
"l  c #E4ACBC",
"z  c #ECABBE",
"x  c #F4A4BC",
"c  c #F8A4BE",
"v  c #F3AABE",
"b  c #E4B2BF",
"n  c #E4AFC0",
"m  c #EDAEC1",
"M  c #F6A6C1",
"N  c #FAA1C4",
"B  c #F4ADC2",
"V  c #F8ADC4",
"C  c #FAABC9",
"Z  c #E6B4C1",
"A  c #EDB3C3",
"S  c #E5BCC5",
"D  c #EBBAC6",
"F  c #EDBDCA",
"G  c #F3B3C5",
"H  c #F8B3C7",
"J  c #F3B9C7",
"K  c #F5B6C9",
"L  c #F8B5CB",
"P  c #F5BCCB",
"I  c #F8BBCD",
"U  c #F4BED0",
"Y  c #F9BED1",
"T  c #E5C4CC",
"R  c #EDC3CC",
"E  c #F3C2CD",
"W  c #F8C1CF",
"Q  c #F2C9CF",
"!  c #EFC7D1",
"~  c #EEC9D1",
"^  c #F5C5D2",
"/  c #F9C4D3",
"(  c #F5CBD4",
")  c #F9CBD5",
"_  c #FCC5DA",
"`  c #F6CDD9",
"'  c #FACDDA",
"]  c #EDD1D5",
"[  c #EFD3D8",
"{  c #F5D2D7",
"}  c #FAD3D6",
"|  c #F7D9D7",
" . c #F5D4DA",
".. c #F9D5DB",
"X. c #F1DADB",
"o. c #F0DADB",
"O. c #F2DADB",
"+. c #F3D9DB",
"@. c #F3D8DC",
"#. c #F3D9DC",
"$. c #F1DBDC",
"%. c #F2DADD",
"&. c #F3DADD",
"*. c #F3DBDE",
"=. c #F4DBDE",
"-. c #F4D8DD",
";. c #F0DCDC",
":. c #F1DDDD",
">. c #F3DCDD",
",. c #F3DDDE",
"<. c #F3DCDF",
"1. c #F2DCDE",
"2. c #F1DEDE",
"3. c #F4DCDF",
"4. c #F4DDDE",
"5. c #F6DEDC",
"6. c #F6DADD",
"7. c #F8D9D8",
"8. c #FAD8DB",
"9. c #FAD8DB",
"0. c #FAD8DC",
"q. c #FAD9DC",
"w. c #FBD9DC",
"e. c #FADADD",
"r. c #FADBDD",
"t. c #FADBDE",
"y. c #FADADE",
"u. c #FBDFDF",
"i. c #FADEDF",
"p. c #FADCDF",
"a. c #FADADE",
"s. c #F5E1DE",
"d. c #F6E2DF",
"f. c #F8E1DF",
"g. c #F5D6E0",
"h. c #FCD5E1",
"j. c #F3DDE0",
"k. c #F4DDE0",
"l. c #F4DEE1",
"z. c #F6DEE1",
"x. c #FADDE0",
"c. c #FBDEE1",
"v. c #FADFE1",
"b. c #FCDEE2",
"n. c #FBDDE2",
"m. c #EFE0E0",
"M. c #F1E1E0",
"N. c #F2E1E1",
"B. c #F0E3E2",
"V. c #F2E2E2",
"C. c #F3E2E2",
"Z. c #F4E3E3",
"A. c #F2E4E3",
"S. c #F2E5E4",
"D. c #F2E6E4",
"F. c #F6E2E5",
"G. c #F9E0E1",
"H. c #FAE0E1",
"J. c #FBE0E1",
"K. c #F9E3E1",
"L. c #FBE3E1",
"P. c #F9E2E2",
"I. c #FCE7E5",
"U. c #FCE4E4",
"Y. c #FBE2E5",
"T. c #F2E8E5",
"R. c #F3E8E6",
"E. c #F3E8E7",
"W. c #F2E8E6",
"Q. c #FBE8E5",
"!. c #FAE9E5",
"~. c #FCE8E5",
"^. c #FCEAE6",
"/. c #FBE9E6",
"(. c #F7E6E8",
"). c #FCE6E9",
"_. c #F6E9EA",
"`. c #FBEAEB",
"'. c #FBF1EE",
"]. c #FCF2F0",
/* pixels */
"[ @.+.+.+.+.%.%.6.%.%.~ ( 3.3.,.,.6.+.,.3.k.3.,.@.F %.k.j.k.3.k.F.E.R.D.R.C.T { (.R.R.D.A.C.C.C.C.,.C.] S %.,.,.,.,.+.+.+.+.+.m.",
"( ) } } } } ..} ......P J ....8.8...} } 8.r.8.8.) v } r.8.r.r.r.r.~.~.Q.Q.J.A ( U.U.~.~.Q.J.K.d.d.3.f.Q h } 8.| | | { } { { { ,.",
"( ) } } } } ........8.E J } } } ..} } } } ....8.) v ) ............b.J.r.r.r.A E w.b.b.r.r.r.b.J.J.J.J.( h ) } { } { { } ..{ ` @.",
"v x c v i x B v v v G v 6 y p p p i w p a a i i y 6 y a i u u 7 y c c c a i 9 0 u p p p y 5 v v B v c r 3 9 9 w 0 0 3 9 p p i G ",
"i 0 0 y 1 o p i p i i k r p p p i t O c H V v v B J L I L H L f k / / W I L L H L L L K G ; P E W W P K G B G G G B & g P K L ( ",
"{ } } ..( z ....} } 8.8...r.r.b.b.r.E ..J.r.r.r.J.J.U.~.J.b.r.) ^ Y.J.J.Y.b.r.n.J.b.r.r...D ) r.....r...8.r...r.r...J E ....} 6.",
"+.} ..8.) G 8.r.r.r.r.J.J.J.Y.U.U.J.E r.J.r.J.U.~.U.Q.Q.U.Y.J.) / Y.b.Y.U.U.b.b.Y.J.b.r.8.A ) r.r.r.r.8.8.8.+.+.+...J E ......,.",
"6.} } } ) G r.r.J.J.J.J.Y.Y.Y.U.U.U.^ r.J.J.J.U.U.~.Q.Q.Q.Y.Y.) W U.U.U.U.Y.Y.U.U.Y.Y.b.r.G } b.r.r.r.r...{ +.+.+...P E ....} %.",
"{ } } } / G 8.r.r.r.J.J.J.Y.Y.Y.J.Y.( ..r.J.J.Y.Y.U.~.Q.U.J.b.) / U.Q.U.U.U.Y.U.U.Y.J.J.r.A ` r.r... ...} } ........P Q ....} %.",
"( } r.} W v +.+.r.r.r.r.r.b.b.b.J.J.( ..b.b.b.b.Y.Q.Q.Q.U.b.r.} ) U.`.`.U.U.Y.Y.Y.J.b.b.r.A ) } } ) ' ) ) ) } } } } J E } ) ) -.",
"J J J G v r P E E I P J K I P I W P A G K H H H K P / ) / L V B B I K K L H z B H B B V c 6 4 6 6 6 6 + 2 y y a y y 6 6 q q y B ",
"r 6 9 8 8 w y w r x x X # c p x c x v k k t x v v f / ) / I H H H L L K P I : k P P P K L G B G G z k e & K P P K K K K K K K ( ",
"{ } ..r.r.....} 8.r...D D r.r.r.b.b.r.b.Y.J.b.J.r.E Y.`.).J.r.r.b.Y.J.Y.U.Y.F ` Y.U.U.Y.Y.J.J.J.b.b.b.` J r.b.Y.J.b.r.r.b.b.b.C.",
"+...+.r.J.r.r.r.r.r.r.Q ( U.Y.Y.Y.U.J.Y.U.U.Q.`.J.E Y.`.`.Y.b.b.Y.U.F.U.`.U.Q  .).).`.U.U.Y.Y.Y.Y.Y.Y.` J b.b.Y.U.Y.Y.Y.U.Y.b.C.",
"{ 8.8.r.J.8.r.r.b.b.b.( ( U.U.U.U.Q.U.U.`.Q.U.`.J.E Y.`.`.Y.b.Y.U.(.(.(._.).( ` ).`.).U.Y.J.b.J.U.Y.J.` F x.b.Y.Y.Y.J.J.b.b.r.k.",
"+.8.r.r.r.8.r.r.J.J.b.( ( U.U.U.Y.Y.U.U.U.U.Y.U.x.P Y.).U.Y.b.b.Y.U.U.(.(.`.`  .).Y.J.b...r.b.Y.U.Y.Y.{ R r.b.b.b.b.+.8.+.r...%.",
"+.8.r.J.r...r.r.J.J.r.Q ( b.r.Y.b.J.b.J.J.Y.Y.Y...K b.J.Y.Y.J.b.b.Y.Y.U.U.U.( } Y.r.r.r.....r.b.b.b.b.{ D ..........} } ....} 6.",
"( ) ) ^ W P / / ' ( ^ A m / P W I I P I Y / / / W x H L K L L H I I I I I L B v H B v V x i x x M M M v 8 i i i y y 5 5 5 5 5 n ",
"k y i 9 1 . w y r r w r v V c c M V 8 K P P / / / G K P P I K v B / ^ / / / / ) / / E I L : B H K I K P P K K P I L : > l l l T ",
"{ } ..r.^ l } ..r.b.b.r...} } } ..} F ..b.r.b.U.U.Y.`.`.U.U.Y.} ) Y.Y.`.`.`.Y.b.b.b.Y.b.r.R  .Y.U.b.F.b.b.r.r.r.b.r.E ( b.b.r.k.",
"+.r.r.r.} G r.b.Y.Y.Y.Y.x.r.r.r.....R r.b.b.Y.`.`.`.`.`.`.).Y...) b.Y.).`.`.).Y.Y.Y.U.Y.x.Q +.k.F.k.k.b.r.x.6.b.b.x.^ ( b.b.r.k.",
"+.r.r.b.} G r.b.b.Y.b.Y.b.r.b.r.b.x.R r.b.b.U.`.`.).`.`.).).Y...} Y.U.`.).).U.Y.Y.U.U.Y.b.Q 6.F.(.F.Y.b.b.b.b.b.b.x.( ` b.b.r.k.",
"+.r.r.b...G ..b.b.b.b.r.r.r.r.r.b.x.R r.b.r.b.Y.).).`.`.).U.Y.r.} Y.U.U.U.Y.Y.b.Y.Y.Y.Y.b.R r.U.(.Y.Y.b.x.b.b.b.b.r.` } b.x.r.k.",
"+.r.r.b...G } r.r.r.r.+.......r.r.r.R ..b.r.r.b.).).).).U.b.b.r.} b.b.b.Y.Y.b.b.b.b.b.b.x.R  .J.Y.b.b.b.r.b.b.b.x.r.(  .x.6.r.j.",
"` } } } ) v K / I I P K J K K K J G j ( ' ) ) ) / ^ / / ) / ^ / Y H K K H H L I / / / / / m J L L L L B j K G m z k e K ^ Y I ` ",
"G B B B V v v B B B i   X z l l l d l E E P P I K : L P E E E ( ` E E E E P P P ' ( ` `  . .( E P E E D - R ^ E F D D E E P K ( ",
"+.} ..r.....r.r.......A D r.r.r.r.x.b.r.r.x.b.Y.b.R r.b.b.b.Y.b.Y.).Y.Y.b.b... .b.b.b.b.b.b.Y.Y.Y.J.Y.b.J r.U.U.U.J.b.6.r.b.b.F.",
"+...r.J.x.r.b.J...} ..( E r.r.b.b.b.b.b.b.J.U.).Y.R r.b.b.Y.Y.Y.Y.).Y.Y.b.b.x...b.b.b.b.b.n.Y.U.Y.Y.Y.b.E ..Y.Y.Y.b.r.r.b.k.b.F.",
"+.r.r.b.r.r.b.b.r. .r.` E r.x.b.Y.Y.b.b.Y.U.).).b.F r.Y.Y.).Y.Y.U.U.Y.Y.b.b.n...b.b.Y.Y.Y.Y.Y.U.Y.Y.Y.b.E ..Y.Y.Y.b.b.b.b.k.b.F.",
"+.r.r.r.r.r.b.b.r.r.r.` E r.x.b.b.b.b.b.b.Y.Y.(.k.F x.Y.Y.Y.Y.Y.U.U.Y.J.b.b.b...b.b.b.Y.Y.Y.Y.Y.Y.b.b.x./ ..Y.Y.Y.b.b.b.b.b.b.F.",
" .r.r.r.r.8.r.r.r.6.6.} ( r.r.r.r.r.b.b.b.b.b.J.b.D x.Y.Y.Y.U.Y.Y.Y.Y.Y.b.b.b...Y.Y.Y.Y.Y.Y.Y.Y.b.b.b.b.) x.Y.Y.Y.n.Y.b.r.b.b.F.",
"` ) ) } }  . . .+..... .^ ) J W ) ) ) ) ) ) ) } } A ) } ) ) ) / ) ' ' ` ) / ' / ^ ( ( ( ) P / ) ) / / ^ l Y / Y Y Y m m L K J ( ",
"Z z j j k f ~ ~ ( ( R ( ( ^ d P E W , s E R E ( ` ( ^ ^ E P P k t ( ^ ^ ) / ( ` ( ` `  .` l ^ } ' ` ' ( ! ` ) ) ) / @ = ^ ^ ^ [ ",
"@. .+. .` F 6.x.6.b.b.b.b.b.J.b.b.b.F ` b.b.b.b.b.b.b.b.n.n.Y.k.( b.J.b.n.b.x.x.b.n.Y.Y.b.^ ..Y.).`.`.`.`.`.`.`.).U.{ R Y.Y.b.F.",
"+.......} P r.b.b.Y.U.U.Y.Y.U.).U.Y.E ' b.b.b.b.b.b.Y.b.Y.b.b.b.} b.Y.Y.Y.b.x.x.b.Y.Y.Y.b.^ ..Y.).`.`.].].].].'.`.`. .( b.b.b.F.",
"6.r.r...} K 6.b.J.J.J.Y.Y.Y.Y.U.).U.E ` b.b.b.b.b.b.b.Y.Y.Y.b.n.' b.Y.U.Y.Y.b.x.Y.b.Y.Y.b.^ ..Y.Y.).`.'.'.].'.'.`.`.x.) b.b.b.F.",
"6.r.r.r...P ..b.b.b.J.Y.b.Y.Y.Y.U.Y.E ` b.b.x.r.x.b.b.b.b.b.b.n.) b.Y.Y.Y.Y.b.b.b.b.b.Y.Y.( ..b.Y.Y.Y.).`.`.`.`.`.`.x.) b.b.b.F.",
"+.....r.../ ..r.k.k.F.b.b.Y.U.).U.Y.E ( n.r.........n.b.b.b.b.n./ x.b.b.b.b.b.b.b.r.b.Y.b.) ..b.b.Y.Y.Y.U.`._.`.`.`.b. .b.b.b.F.",
" .} ....../ )  .} ) ` ( ) ' +. ...r.A G ) ) / / / / / ) ' ' } / I ) ) ) / ^ / } ) / ) ) ) ^ I / / / ) ) ^ / ) `  .` ^ L I I L ( ",
"A Z D D ( 6.R Z Z Z m , * b d b A K d j H z j f < % V L L L I P ( D P E P F s F / / ^ / ^ ^ ^ ( / ^ / D - P Y Y ^ ^ ^ ( ^ ^ ^ { ",
"{  .+.6.F.(.6.+.+.6.r.T S k.3.k.3.6.k.J.b.k.k.6.6.R b.Y.Y.).).Y.Y.Y.Y.).U.`. . .).`.`.`.).b.U.U.U.U.).x.E Y.Y.Y.Y.Y.Y.).).U.Y.(.",
"{ } ..r.Y.n.r.r.r.r.w.E R b.b.b.b.x.b.Y.Y.Y.Y.Y.x.^ J.U.).).`.).Y.).).U.U.).z.r.`.`.`.`.`.Y.`.`.`._.`.b.^ Y.).`.`.`.`.`.`.`.)._.",
"@.+.r.b.Y.Y.Y.Y.b.b.r.E P b.J.b.b.b.b.Y.Y.U.U.U.b.^ Y.(.(.(.).).).).).).).).z.x.`.`.'.`.`.Y.`.'.`.'.`.Y.( Y.`.`.`.`.`.`.`.`.).(.",
"+.r.b.b.b.Y.Y.Y.Y.J.r.^ E b.Y.Y.b.b.b.b.Y.Y.Y.Y.b.^ Y.(.(.`.).).).).).).).).z.x.`.'.]._.`.Y.`.`.`.`._.Y.) U.`.`.`.`._.).`.).).(.",
"@...r.6.r.b.b.r.r.6.b.^ J r.b.b.b.b.r...b.J.b.Y.b.E b.U.U.).).).).).).).U.).x...`.`.`.`.`.b.`.`.`.`.`.Y.' )._._.`.`.`.).`.`.).(.",
"( ` ` } r.r.} } ' } } J 5 / ..' ) / / ) ' } ......K h.n.n.x.n.n.n.n.n.n.n.n...` h.x.x.h...) P Y ..h.....^ ' ' ' ) ' ) ' h.....k.",
"B v x k k K ^ B & k L A % x B V M q + y M V V L L L P I I I / K B L L L Y I / ` P / / / Y & j z M Y I P ( / P ^ D ( A ^ ..} ..k.",
"( ( ^ E ^ ^ +.( F ( ....r.r.....r.6.m ( r.r.x.b.n.).).Y.Y.Y.Y.r.) b.n.Y.Y.Y.).).).).U.).Y.J x.U.Y.).`.).`.`.`._.).`...r.`.).).).",
"+...r.r.} E +...r.b.b.b.Y.Y.b.b.b.b.( ..b.b.b.Y.Y.).).`.).).).b...).).).).).).).`.`.).).)./ b.U.).).).).`.`.`.`.).)...n.`.).).(.",
"+...b.Y.r.( r.r.x.b.r.b.Y.U.Y.b.b.b.^ ..b.b.Y.U.U.).`.`.).).).b...`.(.).).).).`.`.).).).).' Y.).`.).).).`.`.`.).).).} ..).).).(.",
" ...b.Y.6. .r.6.r.r.r.b.b.U.Y.b.b.b.Q  .b.Y.U.).).`.`.`.).).).n...).).`.).).).`.`.`.).).).' b.).`.`.).).`.`.`.).).).....).Y.Y.(.",
" .} r.b.6.{ +.6.r.r.r.r.b.Y.n.b.b.b.E ` Y.U.U.).).).).).).).).n...).).`.`.).).).).`.).).U.' Y.`.`.`.).).).`.).).`.`.....).Y.Y.(.",
"( ) } ..} ( ( ` } ' ' ' ......x.x.x.F ` b.Y.n.n.b.n.n.n.Y.Y.Y.n.) n.Y.Y.Y.n.x.n.n.n.x.x...) } ......} ' / / } ..x.x.J P ' ' ' g.",
"G L K P P P H J B H B y w Y Y / P I A A L k J J t : ^ ` ` ( T ] ( R R R R T Z R ) ) ) ( ^ ( ( (  . .` ( f z ` r.x.x.{ ( } ' /  .",
"{ } +...6.+. . .{  .+.B r 6.r.x.x.6.b.b.x.{ z.b.{ l 6.Y.Y.Y.Y.Y.`.).).).).`. . .Y.Y.Y.Y.Y.b.Y.Y.Y.Y.Y.n./ Y.).).).).).).Y.Y.Y.(.",
" .} ................x.E V x.b.b.b.Y.Y.Y.b.b.b.Y.n.^ b.Y.Y.U.).).).).).).).). . .).).).).Y.b.Y.).).).).Y./ ).).).).).).).).Y.Y.(.",
"@.......r.r.r.r.r.r.r.) J x.b.b.Y.b.b.Y.b.b.Y.Y.b.L b.).Y.Y.).Y.).).U.Y.Y.). . .).).).).).Y.).).`.).`.Y.) ).).U.).).).).Y.Y.Y.F.",
"@.........r.b.r.r.r.b. .P x.b.b.Y.b.Y.b.Y.Y.Y.Y.n.H x.Y.Y.Y.).Y.Y.Y.Y.Y.Y.).g...).).).).).Y.).).).).).Y./ b.).Y.Y.Y.Y.Y.Y.Y.Y.(.",
"@...........6...r.x.b...P x.b.b.b.b.Y.b.b.b.Y.Y.h.B h.b.b.Y.Y.Y.Y.Y.b.b.Y.).r. .).).).).).b.).).).).).b.N _ Y.).Y.Y.Y.Y.Y.Y.b.(.",
"( ) ) ) ) } ' } } ..h.' K ' ........h.w.w.w.h.h.U 8 ' h.h.h.h.h.h.h.h.h.h.n.' ) n.n.h.h.h.' h.' ' h.' _ a C / _ _ _ U ^ ) _ _ g.",
"F P P J G J P P E ^ ^ ^ Z A A A G B 3 z I P Y ^ ~ T J P P ^ ^ P ^ Y / / / / ( ..h.h.' / / j Y Y Y Y / / ' ../ _ / Y ; l ) ) ` g.",
"@.+.+.6.6.{ 6.b.b.b.k.b.J.b.b.k.b.b.e ( Y.Y.Y.Y.Y.Y.Y.U.).`.`.`.).).`.`.`.).).).).).).).).^ n.).Y.).`.Y.Y.).).).).Y.F ( Y.Y.Y.(.",
"+......... .r.b.b.x.x.b.b.b.b.b.b.Y.( ' b.Y.Y.Y.n.n.).).`.`.`.`.).).`.`.`.`.).).).).).).).' Y.).).).).Y.Y.).).).).Y.Y ( Y.b.Y.(.",
"%.6.6.6.6.{ k.F.k.k.k.k.Y.Y.Y.F.n.n.` -.).(.(.).n.z.)._._.`._._.)._.`.`.`._.).)._._.).).).g.)._._.`.`.).).`.).).).).^ ` Y.Y.Y.(."
};
