/* XPM */
static const char *pink_marble_ea[] = {
/* columns rows colors chars-per-pixel */
"64 64 197 2 ",
"   c #D75D5B",
".  c #DA676D",
"X  c #D86C71",
"o  c #D16D7B",
"O  c #D97478",
"+  c #DA787C",
"@  c #C86E81",
"#  c #CD7689",
"$  c #D17486",
"%  c #DA7785",
"&  c #DB7C86",
"*  c #D27C8C",
"=  c #D97D8D",
"-  c #CF7D91",
";  c #D57D90",
":  c #B49496",
">  c #B59599",
",  c #BA979B",
"<  c #B69A9D",
"1  c #B5A1A4",
"2  c #B9A9AD",
"3  c #BEAEB1",
"4  c #DE808B",
"5  c #D48192",
"6  c #DB8594",
"7  c #DE8A97",
"8  c #D88798",
"9  c #D58B9B",
"0  c #DB8C9B",
"q  c #DE949E",
"w  c #E5828E",
"e  c #E48993",
"r  c #E28C9A",
"t  c #E3929D",
"y  c #E9939D",
"u  c #EB999E",
"i  c #F19899",
"p  c #D694A4",
"a  c #DD94A2",
"s  c #DE9AA6",
"d  c #D499AA",
"f  c #DC9DAB",
"g  c #E397A3",
"h  c #E996A0",
"j  c #E49BA6",
"k  c #E99BA3",
"l  c #E39DAA",
"z  c #EA9DA8",
"x  c #C0ABAF",
"c  c #DDA0AE",
"v  c #D2A8AA",
"b  c #C0ACB0",
"n  c #DCA5B3",
"m  c #D2ADB0",
"M  c #DBA9B7",
"N  c #DEAEBB",
"B  c #C4B3B7",
"V  c #C8B4B7",
"C  c #CDB9BD",
"Z  c #DFB4B7",
"A  c #DCB1BF",
"S  c #E4A0A6",
"D  c #EDA2A6",
"F  c #E4A3AD",
"G  c #EAA3AC",
"H  c #E6AAAF",
"J  c #EDAAAE",
"K  c #F0A1A5",
"L  c #F1A5AC",
"P  c #F2ACAC",
"I  c #E5A6B1",
"U  c #E9A7B1",
"Y  c #E4ABB4",
"T  c #EBACB4",
"R  c #E3AEB9",
"E  c #EBAFB9",
"W  c #F0A6B0",
"Q  c #F2AEB2",
"!  c #E5B3B7",
"~  c #EBB2B5",
"^  c #E4B3BC",
"/  c #EBB5BB",
"(  c #E4B9BC",
")  c #ECBABD",
"_  c #F2B4B5",
"`  c #F3B8B7",
"'  c #F1B5BA",
"]  c #F2BCBC",
"[  c #F4C0BF",
"{  c #DEB5C2",
"}  c #DFB9C4",
"|  c #E4B7C1",
" . c #E8B7C0",
".. c #E5BCC4",
"X. c #EBBDC2",
"o. c #E5BFC8",
"O. c #F1BEC2",
"+. c #E6C1C6",
"@. c #EDC2C5",
"#. c #E6C3CB",
"$. c #ECC5CA",
"%. c #E4CBCF",
"&. c #EDC9CD",
"*. c #F2C4C4",
"=. c #F8C6C5",
"-. c #F6C8C7",
";. c #F1C6C9",
":. c #F1CBCC",
">. c #E5C7D1",
",. c #E6CCD3",
"<. c #EDCDD2",
"1. c #F1CED1",
"2. c #E5D1D5",
"3. c #EED1D5",
"4. c #E7D2DB",
"5. c #EDD4DA",
"6. c #EFDBDF",
"7. c #EFDBDE",
"8. c #EED9DD",
"9. c #EED9DC",
"0. c #F2D0D1",
"q. c #F1D1D2",
"w. c #F0D0D3",
"e. c #F2D1D2",
"r. c #F2D0D3",
"t. c #F1D2D3",
"y. c #F2D2D3",
"u. c #F1D1D4",
"i. c #F0D2D4",
"p. c #F1D2D4",
"a. c #F1D3D5",
"s. c #F2D3D5",
"d. c #F2D3D4",
"f. c #F0D3D6",
"g. c #F3D1D4",
"h. c #F2D4D5",
"j. c #F1D5D7",
"k. c #F1D4D7",
"l. c #F3D4D7",
"z. c #F2D5D7",
"x. c #F3D5D6",
"c. c #F3D6D7",
"v. c #F1D2D4",
"b. c #F0D5D8",
"n. c #F1D5D8",
"m. c #F2D5D8",
"M. c #F1D6D9",
"N. c #F3D6D8",
"B. c #F2D6D9",
"V. c #F0D7DA",
"C. c #F2D7DA",
"Z. c #F4D7D9",
"A. c #F1D6D9",
"S. c #F2D8DA",
"D. c #F5D9DA",
"F. c #F6D9DA",
"G. c #F0D9DC",
"H. c #F1D9DC",
"J. c #F3DADD",
"K. c #F1DBDE",
"L. c #F2DADD",
"P. c #F1DCDF",
"I. c #F5DDDF",
"U. c #F5DCDE",
"Y. c #F2DADD",
"T. c #EEDBE0",
"R. c #EFDDE1",
"E. c #EDDCE2",
"W. c #F0DDE1",
"Q. c #F3DDE0",
"!. c #F2DEE2",
"~. c #F4DEE1",
"^. c #F5DFE3",
"/. c #F4DFE2",
"(. c #F5DEE1",
"). c #F3DEE1",
"_. c #F4E0E3",
"`. c #F5E0E3",
"'. c #F6E0E3",
"]. c #F2E1E4",
"[. c #F3E2E5",
"{. c #F2E2E5",
"}. c #F3E2E6",
"|. c #F3E3E6",
" X c #F4E1E4",
".X c #F4E1E5",
"XX c #F4E2E5",
"oX c #F5E2E5",
"OX c #F4E2E6",
"+X c #F5E2E6",
"@X c #F4E3E6",
"#X c #F4E3E7",
"$X c #F5E3E6",
"%X c #F4E4E7",
"&X c #F4E2E5",
"*X c #F4E4E8",
"=X c #F4E4E8",
/* pixels */
"9.9.9.R.R.W.T.<.@.:.1.V.XXXX].].XXXX`.~.~.`.~.S.f.V.k.k.k.k.w.w.:.' W E E / @.$.1.1.1.5.5.9.$./ ;.1.m.:.;.:.:.f.V.V.k.V.V.S.G.V.",
"5.5.9.9.R.6.5.<.@.:.w.G.XXXXXXXX*XXX~.`.XXXXXXK.9.G.m.V.V.c.k.f.O.Q / / U  .;.1.f.f.1.f.V.<.X.@.1.V.V.:.;.1.k.k.V.V.f.k.V.k.k.f.",
"5.5.5.9.R.9.5.<.&.1.:.G.XXXXXXXX%XXXXXXXXXXX].W.G.V.F.F.F.F.U.V.O.' $.U z ) :.f.f.f.f.f.:.X.) @.1.V.V.:.O.:.f.w.w.w.1.f.3.<.<.<.",
"9.9.9.9.9.9.5.<.&.:.:.~.XXXXXXXXXXXXXXXXXX%X].W.G.U.U.U.U.~.K.G.;.$.#.z y / &.f.f.f.f.f.3.$.X.$.1.f.f.:.O.] *.*.*.*.;.;.X.~ ) +.",
"9.9.9.K.G.5.3.,.#.:.m.~.XXXXXX`.`.XXXXXXXXXX].W.XX*X*XXXXX~.K.G.:.O.$./ l X.<.k.f.w.w.3.3.3.$.;.:.w.f.<.:.] ' ` H u G S g E X.$.",
"5.9.W.W.V.5.3.%.$.f.G.~.XXXX~.~.~.XX*X*XXXXX].].%X%XXXXX`.W.G.V.;.X.X.X.U #.<.V.f.w.w.w.k.k.;.;.:.f.w.1.1.:.&.$./ y k y l +.%.&.",
"5.9.].G.V.5.3.%.<.V.G.~.XXXX~.U.XXXX*X*XXX`.XX*X%XXXXX].W.G.V.:.*.;.;.O./ &.3.S.k.w.:.:.V.V.:.:.1.f.:.-.;.&.&.&./ J K k ~ &.&.$.",
"5.9.G.V.V.5.3.%.5.G.G.`.XX~.U.U.XX*X*X*XXX`.XXXXXXXXW.G.G.V.<.$.;.;.;.:.;.<.5.G.V.w.0.:.k.f.*.:.w.f.:.;.:.1.;./ D / J ~ @.&.&.O.",
"f.V.V.f.1.1.&.,.V.W.W.XX~.U.U.~.XXXXXX*X*XXX`.XXXXW.V.f.f.1.&.&.;.;.1.w.:.w.f.G.S.k.w.w.f.w.*.;.w.f.1.<.<.<.O.e y / T X.$.$.X.T ",
"*.;.;.;.$.$.#.3.G.W.~.~.U.U.~.XXXXXXXX*X*X*XXX~.W.f.:.:.:.:.&.$.;.:.V.:.:.1.f.G.V.k.k.k.k.V.1.&.<.<.<.%.%.,.T w y T / @.X.) / U ",
"*.1.<.<.<.<.%.5.G.~.G.f.G.XXXXXX%XXXXX*X*X*XXXW.V.:.:.w.:.:.&.*.O.1.G.;.*.1.k.V.V.k.k.V.V.S.k.&.<.&.&.&.&.#.G l U Y / ) ~ ~ T U ",
"3.9.9.5.3.,.<.5.~.~.G.G.].%X*X%XXX_.XX*X*X%XXX_.V.f.f.w.&.&.&.X./ &.V.O.O.;.k.V.S.V.k.V.S.G.w.&.<.<.<.%.#.U l j Y S T ~ ~ ~ E F ",
"5.9.5.3.3.%.<.G.~.~.`.XX%X*XXXXXXX].XX%XXXXXXXK.V.V.V.:.&.$.) T T $.:.' X.O.:.V.G.S.k.V.G.G.w.&.<.&.,.<.$.G r g l q ! ) ~ ! Y ^ ",
"k.5.w.3.<.#.<.W.~.`.XXXX*X*XXXXX].].XX%XXX].G.k.V.S.V.1.$. .y g y / ' L O./ ;.V.G.V.k.k.S.G.k.+.T / %.4.<...H t t q ! X.) ! / %.",
"f.w.&.<.%.+.5.`.XXXXXXXX*X*XXXXX].XX%X*XXXG.f.k.G.V.V.<.X.G r Y r h X.] ' ' :.S.G.V.k.k.G.G.5.) U X.,.<.&.+.) ) ~ S Y +.../ @.<.",
":.:.&.&.%.#.G.XXXXXXXXXXXXXXXXXX%X%X%XXXW.V.w.V.V.k.3.$.E U H X./ T $.<.T / :.S.G.S.k.k.G.K.5.)  .#.@.&.;.@.] [ ) H ! ) ` :.&.<.",
":.&.<.<.#.,.W.].W.W._.XXXXXXXXXX*X%XXX].K.V.f.k.&.@.@./ ^ ..) $.&.$.$.@.~ / 1.V.G.S.k.k.S.K.5.) X.;.;.&.&.@.;.*.*.~ X./ *.$.&.<.",
"<.<.&.<.%.<.G.W.R.R.W.W.W.`.XXXX*X%XXX].G.V.&.X.H / @.&.#.X.@.@.1.:.&.&.+.X.&.V.G.S.k.k.V.K.5.#.;.:.w.&.&.@.:.:.@./ X.) $.&.<.<.",
"&.:.&.%.#.5.G.W.W.W.W.S.S.W.`.%X%X%X]._.W.V.$.T / @.&.<.<.&.@.@.:.w.:.&.$.) $.V.G.G.k.f.k.9.3.$.:.f.V.:.;.;.:.3.X./ ) ;.<.<.<.<.",
"&.&.&.%...<.G.XX`.~.W.V.V.G.XX%XXXXX_.`.~.V.@./ @.;.:.:.<.<.$.@.$.1.:.;.;.X.@.V.G.G.k.w.k.V.&.;.:.f.f.:.;.:.f.<.@./ ) <.3.<.<.<.",
") $.&.#.Y ,.W.XXXXXX~.G.G.U.XXXXXXXXXXW.k.:.] X.$.;.;.:.:.:.&.@.@.&.:.;.;.@.X.V.G.G.V.w.k.k.$.;.:.w.1.:.;.:.w.&.X.! X.4.3.,.&.&.",
"..$.$.^ Y 5.].].XX`.~.~.~.XX*XXXXX%X`.k.1.&.) X.&.:.;.:.:.;.:.;.$.$.:.:.1.@./ 1.S.G.V.f.k.f.$.:.:.w.:.:.;.:.&.%.X.~ %.4.>.o.#.$.",
"#.$.#.n ^ 5.R.]._.~.~.~.XX*X*XXXXXXXS.f.f.&.E ) &.1.:.;.;.;.:.:.:.&.$.:.1.+.k D f.G.V.k.f.:.@.:.w.1.:.:.:.w.<.$./ @.4.4.N 0 / @.",
"+.%.#.n n #.,.5.W.G.~.XX*X*X*X*XXXK.S.V.<.$.T / X.&.:.;.;.:.:.:.:.:.:.;.&./ g U ;.k.V.k.w.;.;.:.:.:.:.:.f.V.&.) ] 3.5.4.{ 8  .%.",
"X...M f n n p ..9.V.W.].*X*X*X%XW.G.V.3.@.X.T / X.) :.1.;.;.:.:.:.:.1.:.@.^ g / / :.V.f.&.X.$.:.:.:.:.&.3.<.X.@.5.V.5.5.%.T X.,.",
"X.o.{ { { R t F %.V.].=X*X*X*X].W.G.5.<.X./ T / X.O.*.:.:.;.:.:.1.w.w.1.$.#.^  . .&.k.1.@.G / 1.f.1.:.&.<.X.+.9.G.V.k.3.%.X./ %.",
"%.4.4.4.4.<...N ^ <.].=X].W.R.R.R.3.%. .U U T ~ ) *.;.:.:.:.:.:.w.w.1.&.$.%.+.+.$.<.w.:.` 7 F f.S.k.<.@.X...5.W.V.f.k.w.&.$.E  .",
"&.<.4.4.3.3.,.R R %.,.5.,.#.....#...R F y U / _ _ O.;.;.&.:.:.:.:.w.1.&.@.%.%.&.@.$.&.*.X.7 F 3.S.G.:.~ | <.T.S.k.f.k.w.:.&.X.T ",
"3.3.<.3.<.&.#.I Y M n ^ ^ ^ ..&. .#.^ / G T X.] ` ] :.&.&.:.:.:.:.1.1.&.<.@.$.$.T P P ] $.l ^ V.G.5.@.) #.5.9.k.k.w.f.w.:.<.&.I ",
"5.<.X.#.X...^ U ^ | n n | ..$.&. .#./  ./ / &.:.;.*.:.$.&.:.:.:.:.1.&.#.<.&.&.$.z i P ;.$.G  .3.5.&.+.#.,.9.V.k.k.w.f.k.w.<.,.| ",
"3.<.X. .) ( / ^ ..%.#.N ..$.$.$.X. ./ / /  .#.1.1.;.;.@.;.;.;.:.1.<.&.%.%.<.3.$.D u O.1.&./ @.3.5.+.%.&.<.S.k.k.f.w.w.k.f.<.<.#.",
"&.@.) ) X.) X.$.&.<.<.X.n ..%.$.$.X./  . ./ X.:.f.:.$.;.1.*.@.&.<.$.....^ &.f.1.T D &.<.<.&.;.1.%.$.<.&.<.k.k.f.f.:.w.k.3.<.<...",
") ) ) ) @.) $.&.$.3.5.@.g ^ <.<.1.$./ / X.&.&.:.1.1.;.:.f.;.X.&.&./ F l a &.V.1.Q X.3.<.<.@.$.+.&.<.<.&.<.k.f.d.w.w.k.k.f.3.<.&.",
"/ X.) X.+.$.&.$.@.3.V.$./ #.<.<.1.;.X./ / &.;.*.;.:.:.V.1.;.@.@.@.E ^ Y Y &.V.&.E X.&.<.<.X.&.%.<.f.f.<.&.w.f.w.:.w.k.k.k.f.f.<.",
"/ X.+.@.<.<.$.X./ &.1.;.&.&.#.:.:.*.] / D T Q ] @.:.k.V.:.;.@./ ^ ^ #.#. .&.V.3.X./ X.$.&.@.@.&.w.w.f.:.$.:.f.w.w.w.k.k.V.k.f.<.",
"X.&.<.3.w.&.X.X. .&.f.<.:.&.X.:.:.;.] Q L T / ] @.1.V.w.:.:.@./ ..^ #.<.&.@.f.&.X. ...X.&.&.&.&.:.w.:.O.@.:.w.w.w.f.k.c.k.w.<.&.",
"&.3.3.:.$.@.X.+.#.f.G.3.&.&.#.<.1.;.] _ ] *.@.] *.1.k.1.:.:.@...| t S <.1.&.:.*.$. ...X.$.<.&.:.:.w.:.)  .:.:.w.f.k.k.w.w.1.&.<.",
":.3.1.@.@.@.@.@.@.3.9.3.&.1.&.&.1.:.O.] ] O.@.X._ ;.:.:.:.*./ #.^ 8 F &.f.<.;.;.$.X.^ ^ &.<.:.:.:.:.:.) ^ <.1.w.k.k.w.&.w.:.:.<.",
"1.1.@.X.@.@.X.@.X.<.3.&.@.<.<.X.&.&.O._ / @.&.X.J T / O.;.) j R ^ q R X.<.&.$.;.$.#.....<.w.:.:.:.=.:.X.^ <.w.1.f.w.&.&.1.:.:.&.",
"$.@.@.@.@.*.] ) /  .T X./ X.<.X.X.&.@.T U X.@.) T Y / ;.*.T t s R F I I $.#.@.@.&.&.X.%.1.w.:.:.-.[ :.&.+.<.3.w.k.1.$.&.<.&.&.&.",
"O.@.$.@.&.;.] ) E U / <.&./ @.#./ $.@./ / @.X.) ) X.$.<.&.$.+.....^ j 8 R X.@.@.$.$.%.&.w.:.:.:.=.[ :.$.+.&.<.3.3.&.@.$.<.&.&.&.",
"X.m @.$.$.$.X.X.E U &.V.3./ ) #.F / X.X.;.:.@.@.@.@.&.:.w.&.@.@.+...F 4 F X.@.$.@.) @.&.f.:.;.-.=.*.:.X.X.#.&.&.$.#.X.$.%.+.+.@.",
"( : X.@.@.@.X...Y l / f.f.X.T ^ I H ^ ) ;.;.;.;.;.:.:.:.1.&.@.@.+...7 = U @.@.@.@.@.) @.@.*.] ] *.*.:.@.&.<.X.) +.X. .X...^ ^ ) ",
"( < +.@.@.X./ F 7 j T <.1.&.Y q c Y H ) ;.:.:.;.:.:.:.:.&.&.;.@.$.I o 7 ~ @.X.] @.:.;.) X.;.] ] *.;.$.@.:.<.+.) $.&.$.+.^ } #.@.",
"! > @.@.@.X./ a 9 s a  .X.3./ g R ( ) @.;.:.:.;.:.:.;.:.&.$.;.&.#.q 9 Y X.@.) ] ;.:.;.*.] *.] ] *.&.&.&.$.&.) / @.&.<.<.&.#.$.@.",
"Z , X.@.$. .E a = 0 ; g Y 3.&.H ( +.@.:.;.;.;.;.:.;.;.&.&.&.:.&.X.c M  .@.@.@.@.:.:.;.*.] [ *.*.*.;.&.&.$.@.Y Y @.:.w.3.<.&.@.@.",
"( > X.$.#./ Y ^ f = $ 0 I X.,./ ) @.:.:.;.;.;.;.;.;.@.&.$.&.:.&.@. .X.@.@.) @.;.:.:.*.*.*.*.*.*.*.;.$.$.@.X.Y ~ ;.:.k.f.f.1.;.@.",
"..< X.$.#./ l N | a # p n s ^ ) ) *.:.:.;.;.;.;.;.*.@.$.&.<.:.:.O./ @.;.@.@.;.:.:.:.*.] *.*.*.*.*.;.;.*.X./ / ) ;.:.k.k.f.w.;.@.",
"..< +.$.#./ j 8 F ^ A { N p ^ +.@.;.:.;.*.:.:.;.;.@.@.$.&.&.3.:.] ) ;.;.@.;.:.1.:.*.[ *.:.:.*.*.*.*.;.*.X./ / ) *.:.:.:.w.w.&.+.",
"#.1 %.&.#./ g t F / %.} d 9 ..+.$.:.:.:.;.;.;.;.;.@.@.#.#.%.<.;.) @.;.@.;.;.:.w.:.*.*.*.:.:.*.] ] ] *.] ) / Y ) *.:.*.*.:.:.;.+.",
"%.x 3.3.&.@./ Y g g ^ p - 0 ..&.:.:.:.:.;.;.;.;.;.@.+.Y c | / ) X.@.@.@.@.;.:.:.*.*.:.*.:.*.] ] ` ] [ ] ) / H X.*.;.] *.*.*.*.X.",
"2.C ,.5.3.$...I $ * 9 * 9 Y $.<.:.:.:.:.;.;.;.;.;.@.| & . 4 G X.@.@.@.*.*.;.:.:.*.*.*.*.*.*.] ` ` ] ] *.X./ U @.] *.] *.*.*.*.@.",
"2.B 4.9.3.X.I 9 @ # 5 9 5 Y &.:.:.:.:.:.;.;.;.;.@.+.s   O S X.$.:.;.` _ ` *.:.*.[ [ [ [ *.*.] ] ] ] *.$.$.X.T @.*.*.] ] *.*.*.@.",
"2.2 5.9.3. .j 8 8 = a F 4 ^ &.:.:.:.;.;.;.*.;.@.+.R X + ^ #.$.&.;.*.` _ ] :.*.[ *.*.*.*.;.;.] ] *.*.;.&.$.#./ ` ] *.` ] *.*.*.) ",
"5.3 2.5.,.I 0 6 ^ / ..H e ..&.:.:.:.;.;.@.@.@.X.R & 4 ^ $.$.;.;.:.;.] ] *.*.[ [ *.*.*.[ *.:.] ] ;.;.$.&.$.X./ T _ Q _ *.;.;.;.@.",
"2.1 ,.5.#.E l r  .,. .l a $.;.;.:.:.&.@.@.@.+.R * 7  .$.@.&.:.:.1.:.] *.*.*.] [ *.*.] ] *.*.*.*.;.;.;.$.@.X./ / / ' ] *.;.:.:.@.",
"%.b <.3.<.<.&.E &.3.T z T <.;.:.w.&.@.) ) ) ..0 % ^ $.) / &.:.:.:.*.[ *.*.[ *.*.*.[ ] ] ] ] ] *.;.;.*.*.] / / @.$.;.*.X.@.:.:.X.",
"3.V <.5.T.<.3.<.,.9.&.U #.f.:.:.<.&.@.X.X.X.^ % l #.+.X._ @.&.;.;.*.-.-.*.*.*.*.[ ] ] ` ] ` ] *.*.*.` ` _ ~ / @.$.&.@.@.$.:.;.$.",
"#.1 ,.5.E.<.$.;.3.T.4...#.f.w.1.&.;.@.@.$...t q ..+.@.X._ ~ @.*.;.;.-.:.:.:.*.] ] [ [ _ _ ] ] ] ] ] ` ` _ _ ~ ) X.@.@.$.&.&.&.<.",
"..< #.9.E.4.,.<.<.9.9.&.$.&.f.<.&.:.@.@.$.s 8 { +.X.~ / J J X.*.;.;.:.:.:.:.[ ] ] *.*.` ] ] ] ] ] _ _ ` _ ` _ ~ T ) @.&.&.&.<.&.",
"( > +.5.E.9.4.<.<.,.5.<.&.&.<.1.:.;.@.+.R 8 R #.@.~ J ~ ~ T X.*.;.;.:.:.:.;.[ [ ] *.*.] ] ] ] ` _ _ ` ] ` _ ) ) ~ H @.&.<.<.%...",
"~ : X.<.5.<.,.X. .<.<.$.$.<.&.<.&.:.@.+.a c ..@.@./ / ) ~ J ) *.;.;.:.w.:.;.] *.*.;.;.] ] [ ] ` ` ] [ ` ` ) ) ) ) H ) &.<.%.+./ ",
") v +.,.<...{ #.o.5.3.X.$.<.$.$.$.&.&...f ..+.$.$.@.X.) T J ) ;.:.:.:.:.:.:.;.*.;.:.;.] [ ;.] ] ;.*.` ` ] ) X.@.+. ./ $.,.$./ ) ",
";.:.<.%.#.s n #.X.5.4.X.@.<.%.%.+.X.$.^ R +.+.@.$.@.@.~ D ~ @.@.:.:.0.:.:.:.;.*.;.:.*.[ ;.;.[ ] ] ) ) ] *.@.@.&.<.<.) ..#.X.) &."
};
