/* XPM */
static const char *white_marble_no[] = {
/* columns rows colors chars-per-pixel */
"64 64 73 1 ",
"  c #AAAAAA",
". c #AFAFAF",
"X c #B4B4B4",
"o c #B5B5B5",
"O c #B6B6B6",
"+ c #B7B7B7",
"@ c #B8B8B8",
"# c #B9B9B9",
"$ c #BABABA",
"% c #BBBBBB",
"& c #BCBCBC",
"* c #BDBDBD",
"= c #BEBEBE",
"- c #BFBFBF",
"; c #C0C0C0",
": c #C1C1C1",
"> c #C2C2C2",
", c #C3C3C3",
"< c #C4C4C4",
"1 c #C5C5C5",
"2 c #C6C6C6",
"3 c #C7C7C7",
"4 c #C8C8C8",
"5 c #C9C9C9",
"6 c #CACACA",
"7 c #CBCBCB",
"8 c #CCCCCC",
"9 c #CDCDCD",
"0 c #CECECE",
"q c #CFCFCF",
"w c #D0D0D0",
"e c #D1D1D1",
"r c #D2D2D2",
"t c #D3D3D3",
"y c #D4D4D4",
"u c #D5D5D5",
"i c #D6D6D6",
"p c #D7D7D7",
"a c #D8D8D8",
"s c #D9D9D9",
"d c #DADADA",
"f c #DBDBDB",
"g c #DCDCDC",
"h c #DDDDDD",
"j c #DEDEDE",
"k c #DFDFDF",
"l c gray88",
"z c #E1E1E1",
"x c #E2E2E2",
"c c #E3E3E3",
"v c #E4E4E4",
"b c #E5E5E5",
"n c #E6E6E6",
"m c #E7E7E7",
"M c #E8E8E8",
"N c #E9E9E9",
"B c #EAEAEA",
"V c #EBEBEB",
"C c #ECECEC",
"Z c #EDEDED",
"A c #EEEEEE",
"S c #EFEFEF",
"D c #F0F0F0",
"F c #F1F1F1",
"G c #F2F2F2",
"H c #F3F3F3",
"J c #F4F4F4",
"K c #F5F5F5",
"L c #F6F6F6",
"P c #F7F7F7",
"I c #F8F8F8",
"U c #F9F9F9",
"Y c #FAFAFA",
/* pixels */
"SSSBvp7tBBBvSDDDSSSSSBSDLDLULLLLLLDDLDSLLDDDDLLLUULDDLDDDLLDSSSS",
"BvDDvfzppvvvSDDDSDBBBBSDLDDUULLLUDDLLLBLLLLLDLLLULLDDLLDLLLLSSSB",
"ffBzffvq;fvzDDDSSDSBSBvBDDDLLUUUULDLLLSLLLLLLLLDLLLDSDLLLLLDDSBB",
"qq7tpjB-;qtjSDDDDDSSDSBvBSSSDLUUULDLLULLLDLULLLDLDDLDDDDDDLDDSBB",
"pq7vfqBp227fvSDDDDBBBSSBzvSSSDLULLDDLLLLLDLULDLLDSDDDDSBBSDDDDDS",
"ptfjvtBz$qfpjSSDSDDSSSSBjvSSBSDLLLLDDDLLLLLLDLLLLLLLDDDDDSSSDLDS",
"fvBjjfvzt-fzpzSSBSDDDSvBvzBSSDDDDDLLLLLDLLUULLLLLLULLLLLLDSDSBDB",
"fBSBtfjvztvBfpjjpvDDSSBSBzvvBDLDSDLLLLDDDLDDDDDDLLUULLLLDDDDBBDz",
"fSBBfqjBBBBBfqtzfpzSBBSSvzvzvBSSSLLLLDSDDLDDDSSSDLLLLSDLLDDDSSBv",
"pvvppqpzzBBBjqpvzzzjzzBvzzzjzzjvSDDDLLLLLUULLBDDSDLLLLLLLLDDDSjz",
"fzBzzffjfvvvzpfvvvvvptzptzzzvtqpvBDDDDLULLULLSDLLLLLLLDLDDLLDBvv",
"jzBBBzjfttpBvjjvzjvSp2t7pjzzvp77vBDDLLDLUUUULDSLLUUUUDDDLLLLDBBv",
"zjBSvvSzqtzSzvvvzzvBj-;;7qfjzztqzvDLLLDDLLUULDDDLDLULLDDLLLLDSBB",
"jvBvvBDBpjSDvBBBvvvBzp;27ttjzjtpzjSDLUDDDDLULLDLLLLULDSSDLLLSBSz",
"fzvzvBDBjBDDBBvBBzzBBvf7qzqjjjjttpBLLULSSDLLULDDDDLLDDDDDLLDSBSv",
"tjvvvvSvjBSDBvvBBzpBSjjtpztjzfzfttSLLLLLDDDDDLDLLLSDDDDLLLLDSBSS",
"jBSSBvBjjSSDBjzBBfzSBffppfqfvzzjppDLLDDLLLLSDLLDLLDDDSLLDDDBSSSS",
"zDDSBBvpjSSSSffzpjvBzffztq7tfzjfpjDLLLLLLDSBDLLDDDLLLLDSSBSvfvvz",
"jDDDBBj7zSSDSjfp7fjpvzjzfq222pjptjSLLLLLULSBDDDDDDDLLUDvSSSSjjzz",
"zSLDBvztzBSSSjjfqpt7vzjjft2t27tqfzBDDLUUUUDBSSDDLDDLLLLSDDSvvzzj",
"tjDSBzjpvBvBBvzjfpttfjtpp;qfftppzBSSDLUULUDBSDDLLDDLLLDDDDBvBzfp",
"tqffzj7qvzvvSzjzzjzpjvqq22pzzzjfBLSBDLLLLLDBDLLLULLLDDDDDDBBzvzf",
"zfjtfpqpffzBDBjzvvzfjvf7-qfjzBzvDLSBvvLLDDSjSLLDLLLDDDDDSvzzpvBB",
"zvBBvjjffffvSBzfvvvjjvjt-2ffvvvDLLDSzjvvvjfpvLLDLLDDDDDSSjppfzvz",
"vSDSBvvfjfp7fzzjvBvzjjz72;tpfzSLLLDDvjfjvp-jzvBBDBBBBDDDSjtpBBvz",
"BDDSBSSzfjf;2pvvvvzzpzz777pptjBDDLDDzjzvztpzjjpjvzzzvDDSSBvDSBBB",
"DBDBSSSzfpjpttffq2q7tjpq$tfttfBSSSSvzjzvjfzzzfzBBBzzBSSSBBBDSSBS",
"DSDBSBfpqqfqqpzzpqtttqp7.2tqqfvBBvzzjzvjzjvfpjvBvvjjvBvjzvvjpjvS",
"SBzfff77tpt7fvvBvjvf7qt277q77pfzBvfjzSvzfpzpqzzjffvvzzzffzvjtfzB",
"ptjztq7ppfjjfvzvvzBBpqt2q7;2qfzBDDBvBSBBptzzjzzzfzBBvvvzffzvzSzf",
"fzvvj;pSvp7zzzSBzzBBvfptpptfjvSDDSvjzvvvzzzzjzzjzBBBjvBvffvvvBzf",
"vSBvBzBDBppvBzSBvjzBvjjzzvjzBBSBSBvzvBvvvBjjzzjvffzzjzvvzjvvvptp",
"SSSBvBSDzfjBzjSBvjpjvvvBvvzzSSSSBvzpjBSBfjjvzjjzfffjzvzvjzzvvjfz",
"fjBBvvBSvBDBjpSBSBjfzBBzfffvSSBSBzjzjvBBzzzBBvvzfjvBBBBSBBvvzjjz",
"vjzSSSSBSSSBBSSBSSvjjvBBzjzSBSSSBfjBjzzzvvBBSzzzvjjvfpzzzzvBfjBS",
"LDDSSDDSSBBSzSSDDBBBSSDDDSBSSSSSBzfvjjfzBSBjzjzzjfzjptt7qfzpjSDL",
"LDDSBLvvSzjSBSDDSSSDDSDDDSBBBSSBSzjBBzjfvSSzzzSBzvBppjpqqqfqjBSD",
"DDvBzBpzDt$jBDDDvDDSDBDDSSSBBSSSDvvSvzBfzzzBSBBDSBzjjBBjtpvBBvBB",
"SSBfpztjDjo jBDBvSDDDDSSSBSSSSDDDBSSvjvffjpvSDLLBBSDSBzvzzBLDBvv",
"SSBz;;72BB-o;fDBBSSSSSBSSBSSSSSDDSBBvvvjvfpjBDLLSDLDDDSBvqfDDSvB",
"DBjBBqppjBjpo7DvBDSDDSBSSDDSvBSDDSSSSDSBvjBBzzSLDLLDDLLDSjvSDDBB",
"BBzBDvpvzjzvp2BjzBSDDSBSSDDSvvBDDBSDDBvBSDDDSBzBDDLLLLDLDBSBBDDS",
"vvSBSv-tDSj7fzfBBzzBSSDDDSSSBBSDBBSBfBzzSDDDDSBzBDDLLLLLLSvBSDDB",
"SSDSvBppDDf2qSjBSvvBvSDDDDDSSDDSBSDDzSSzvBSDDDSvfBSDDDLLLDSSvvDD",
"DDDSBBBBDSptfSfSSBSDDSDDSBSSSDSBSDDDDDBvjBBSSSSzpzSSSDDDDDDSpqBD",
"DDvSSvzvDBjBBvqBSBDDDSDDSBBBSDSSSDDSDSSBzvBvSBvzjzzBSDDDBDLLBtfB",
"DS2qSBjzDDSSSBvSSvBBzBDSDDSBSSSSDDDDBDBjvvSvSSSBDSBvBDLDSSDLLpjD",
"BB;7SDBjBSSSSjBDSvzBzvBDDDSSSBSSDDDBBDBzvBSzvSSDDSBSBSLLDBBLLBBU",
"pqpvSDBzvzjBDvvBvSvjzzvBBzzBBBSDDDSBSDSvBBBBSSBSDvBDSBDDDSSDDSSS",
"jqvSDDBp7t7zSzjjpjfvBSDSffvfjBSDDDSSDDDBBSDSDBSDSvBSDSvSDDDDDDDD",
"p2SBBSvptqpjzjvBBBBBvfvSppjfzvSDDDDDDDDDSDDDDSBDDSBvSSzfBSDDDDDD",
"jpzSSzpvSpvSBBDDSDSjvjjvjjjzBBDDDSDSSDSDDDLDDBSDLDvzBBBzfBDSDDDD",
"jjfvBvfBDBBDDDDDSSDBjzBBvBvvBSDDBBDDDDDSSLLLDBDDLDvvBSSBzBDDDSDD",
"jptpzSzBDDDDDDDDDDDDSBBSBBBvjzDDSSDLDLLSSDDDSSDDLLSvBSBBBBSSSBDD",
"ttfvSSvBDDSSDDDDLLDvBzzzBvSvjpBDDDDLLLLSSBSSSDDDLDDvBSSSSSBjjvBj",
"ppfvBfBBSDDDDSSDLLDzBvf7zvBBBfzSSDSBSDDDDzBSDDDDDDDDDDSSSSDvffvp",
"qppjt2zvSDSDDDDDDDBBSSj;7vBBSSvSDDDDDSSDDDSDDLDSSBSSDSDSSDDDSBf7",
"$7qp;$jvSDSSDDSDSvvvBDDBpjSSDDSDDDDLLLDSSDDLLLDDDSSSDvBSSDDSSSvq",
"7to77$tjSDDDDDSSBBvzBDDBzjBSDDDDLLDLLLLDSSSLULLDDDSDDSBSSDDBSSDS",
"j7qjffSvvBSDSBBSDDBvSDSBzjvSDDSDDDDDLLDDLLSDDLLDDDDDDSBSDDDSSDSD",
"vtzzjtzzjzvDDBBDDDSvSDSSSzzvBSSDSSDLLLSDLLDBBSDDSDDDLDSSDDDDSSSD",
"Svjp7;pvSDBSDvvSDDSBvBBBBztzvSDDLLLDLLDLSSBvSDDDDDLDDDDDSDDDSBBS",
"SSSz;o7BSDSvSBSDDDSBBBBBBztfzSDDLLDLLLLLSBSBDLLLDDLLDLDSSDDDDSBS",
"SSBjt;;zBDSvBSDDDDBBDSSDSSBvzBSDLLDLLDLUDBSSBDSLLDLDDLDDDLDDDSBS"
};
