/* XPM */
static const char *white_brick_ea[] = {
/* columns rows colors chars-per-pixel */
"64 64 46 1 ",
"  c #D1D1D1",
". c #D2D2D2",
"X c #D3D3D3",
"o c #D4D4D4",
"O c #D6D6D6",
"+ c #D7D7D7",
"@ c #D8D8D8",
"# c #D9D9D9",
"$ c #DADADA",
"% c #DBDBDB",
"& c #DCDCDC",
"* c #DDDDDD",
"= c #DEDEDE",
"- c #DFDFDF",
"; c #E0E0E0",
": c #E1E1E1",
"> c #E2E2E2",
", c #E3E3E3",
"< c #E4E4E4",
"1 c #E5E5E5",
"2 c #E6E6E6",
"3 c #E7E7E7",
"4 c #E8E8E8",
"5 c #E9E9E9",
"6 c #EAEAEA",
"7 c #EBEBEB",
"8 c #ECECEC",
"9 c #EDEDED",
"0 c #EEEEEE",
"q c #EFEFEF",
"w c #F0F0F0",
"e c #F1F1F1",
"r c #F2F2F2",
"t c #F3F3F3",
"y c #F4F4F4",
"u c #F5F5F5",
"i c #F6F6F6",
"p c #F7F7F7",
"a c #F8F8F8",
"s c #F9F9F9",
"d c #FAFAFA",
"f c #FBFBFB",
"g c #FCFCFC",
"h c #FDFDFD",
"j c #FEFEFE",
"k c #FFFFFF",
/* pixels */
"kkrukkkkkkk4kkkkkkk0ukkkkkkd4kkkkkkk0dkkkkkkd4kkkkkkk4dkkkkkku0k",
"kk0rkkkkkkd3kkkkkkk4rkkkkkkd3kkkkkkk0ukddkdku4kkkkddd3dkdddkkr4k",
"33%*;;%%333*3;;+*;3*;;;*%;33*333%;;;;33;*%;3;*333%;;3;333%%;3;;3",
"kkkkkkr3kkkkkkk3dkkkkkkr4kkkkkkd3dkkkkkkr0kkkkkkd3kkkkkkk0rkkkkk",
"kkkkkku4kkkkkkk3dkkkkkkr0kkkkkkk3kkkkkkk00kkkkkkk3kkkkkkk0rkkkkk",
"kkkkkku4kkkkkkk3dkkkkkkr0kkkkkkk4kkkkkkk00kkkkkkd3kkkkkkk4rkkkkk",
"44;;34;%333;333%;;;%*33*%;;*%;;;%;33**;;%%;;*%;;*+;;;%;33***;%%;",
"dd40ddddddu;ddddddd30ddddddu;ddddddd4rddddddr3dddkdkk3ukkkkkkr4k",
"kkrrkkkkkkk4kkkkkkk4rkkkkkkd3kkkkkkk4dkkkkkku3kkkkkkk3dkkkkkkr4k",
"kkrrkkkkkkk4kkkkkkk4ukkkkkkd3kkkkkkk4dkkkkkku3kkkkkkk3dkkkkkkr4k",
"04**4443443%4443400*30044004*0003000;4003;443*443;334%344;344;;4",
"urrruu0;uuuruuu*ruuuuud04duuuuuu;uuudddd43uuudduu;udddudd30ddddd",
"kkkkkku0kkkkkkk3dkkkkkkurkkkkkkk0kkkkkkkrrkkkkkkk4kkkkkkk0ukkkkk",
"kkkkkku0kkkkkkk4dkkkkkkurkkkkkkk0kkkkkkkrrkkkkkkk4kkkkkkk0ukkkkk",
"uur00r4;r000rrr;0rr00ru44uuuuuur3rrr00rr33rr00rrr;rr04400;300004",
"rr;*4444443%0000000*;0000004;0000000;40000003*0rr0rrr*400000r3;0",
"kk00kkkkkkd3kkkkkkk0ukkkkkkd0kkkkkkk0dkkkkkku0kkkkkkk4kkkkkkkrrk",
"kk0rkkkkkkd3kkkkkkk0ukkkkkkd0kkkkkkk0dkkkkkku0kkkkkkk4dkkkkkkrrk",
"dd44dduuudu*uuuuddd30uuuuudr3duuuuuu3ruuuuuu03uuuuuuu*0rrrrru43u",
"003;44;*343;333+;33;333*%3333433%;33;333%*4433443+3333333%*34344",
"kkkkkku0kkkkkkk3dkkkkkkr0kkkkkkk4kkkkkkk0rkkkkkkd;kkkkkkk4ukkkkk",
"kkkkkku0kkkkkkk3dkkkkkkr0kkkkkkk4kkkkkkkrrkkkkkkd3kkkkkkk4ukkkkk",
"kkkkkkr4kkkkkkk3dkkkkkkr0kkkkkkd3dkkkkkk0rkkkkkdd;ddddddk3rkdddd",
"33;;343;443*;33*334%;33;;43;*444;444*34433443*333*343+334;344*;4",
"kkrrkkkkkkd0kkkkkkk4ukkkkkku3kkkkkkk3ukkkkkku0kkkkkkk4kkkkkkkrrk",
"kkrukkkkkkk0kkkkkkk0dkkkkkku3kkkkkkk3dkkkkkku0kkkkkkk4kkkkkkkrrk",
"kk0rkkkkkkd0kkkkkkk4dkkkkkku3kkkkkkk3ukkkkkku4kkkkkkk3dkkkkkk00k",
"34**3333443*444;344%*;3;444;%4443400%304;;343*3;;%343+*;3;440;*4",
"ddddddr4ddddddd3udddddd00kdddddd3ddddddk40ddddddu;ddddddk3rkkkkk",
"kkkkkku0kkkkkkk4kkkkkkkurkkkkkkk0kkkkkkk0rkkkkkkk3kkkkkkk4ukkkkk",
"kkkkkku0kkkkkkk4kkkkkkkurkkkkkkk0kkkkkkkrukkkkkkk4kkkkkkk4ukkkkk",
"0040003;0004000%40r400r3;rr00000;0004000;30044004%4003400%300440",
"uu;4uruuuur*uuurruu30uurruu03uuuuuuu*0uuuuuu4;uuuuuuu3uuuuuud04d",
"kk0rkkkkkkd3kkkkkkk0dkkkkkkd0kkkkkkk3dkkkkkkr4kkkkkkk0kkkkkkkrrk",
"kk0ukkkkkkd4kkkkkkk0dkkkkkkd4kkkkkkk3dkkkkkkr0kkkkkkk4kkkkkkkrrk",
"rr;4rrr0rr0*rrr0rrr*4rrrrrr4*rrrrrrr*4r000rr3*0000000%0004000;;r",
"000000;*0004440%3443440;;0444004%0000000*;0044443+0004000*300000",
"kkkkkku0kkkkkkk4kkkkkkkr0kkkkkkk4kkkkkkk0ukkkkkkd3kkkkkkk4ukkkkk",
"kkkkkku0kkkkkkk0kkkkkkkrrkkkkkkk4kkkkkkk0ukkkkkkd3kkkkkkk4ukkkkk",
"dddddd04ddddddu;udddddd44uuddddu;udduuuu30uuuuuu0%uduuuuu;0uuuuu",
"04**444444;+333;444X*33;;33;%4443444%;3;*;33;%3;;*404X344;344*;4",
"kk4rkkkkkkd3kkkkkkk;rkkkkkku3kkkkkkk4dkkkkkkr0kkkkkkk*dkkkkkk00k",
"kk0rkkkkkkd3kkkkkkk3rkkkkkkr3kkkkkkk3dkkkkkkr0kkkkkkk;dkkkkkk00k",
"kk4rkkkkkku3kkkkkkk;rkkkkkkr3kkkkkkd;udkkkkk04kdkkdkd;udddkkk44d",
"33*;34;*333*333%334*;44**443*333+;;3*;;;%*;3;*;;*X334*3;;+;443;4",
"kkkkkkr4kkkkkkk*dkkkkkk44kkkkkkd*kkkkkkk4rkkkkkku*kkkkkkk;rkkkkk",
"kkkkkkr3kkkkkkk;dkkkkkk44kkkkkkk;kkkkkkk4rkkkkkkd;kkkkkkk3rkkkkk",
"kkkkkkr;kkkkkkk;dkkkkkk44kkkkkkk;kkkkkkk4rkkkkkku*kkkkkkk3rkkkkk",
";;*;44;%333;443+;33*344**443;443%333;344%*33;*3;*X343*333%;33;;3",
"dd34ddddddu;ddddddd;rddddddr3ddddddd;udddddd04dddkkkd;ddkkddk40d",
"kk0rkkkkkkd3kkkkkkk3ukkkkkku4kkkkkkk3dkkkkkkr0kkkkkkk;kkkkkkk0rk",
"kk0rkkkkkkd3kkkkkkk;ukkkkkku4kkkkkkk3dkkkkkkr0kkkkkkk;kkkkkkk0rk",
"40%;0443043%444;444+30034003*0003333%3443344*%333;444+440;400;;0",
"uuuuuu03uuuuuuu*ruuuuuu;3duuuuur%rrrruuu;4uuuruu0%uduuuud*0ddddu",
"kkkkkku0kkkkkkk;dkkkkkk44kkkkkkd;kkkkkkk4ukkkkkku;kkkkkkk;ukkkkk",
"kkkkkku0kkkkkkk;dkkkkkk40kkkkkkd;kkkkkkk4ukkkkkku*kkkkkkk3ukkkkk",
"0040rr4;rrr00r0%0rr0ruu33urr0rr0%0r040rr;4r000003+rrr0rrr*4rr00r",
"44%3rrr00r0%0rrrrru*4uuruuu0*uurrrrr*4rrruur4;urrrruu*0uuruuu43u",
"kk0rkkkkkkk3kkkkkkk4rkkkkkkd4kkkkkkk4dkkkkkku4kkkkkkk3dkkkkkkr0k",
"kk0rkkkkkkk;kkkkkkk4rkkkkkkd3kkkkkkk3dkkkkkku4kkkkkkk3dkkkkkkr0k",
"ud34duuuuuu*uuuuuud;0dduuddr;ddduuuu*ruuuudd4*uuuuuuu*0uuuudd03u",
"443344;*4443444+4443440**0043444+;;;*333%*44;*33*X4003340%300440",
"kkkkkku0kkkkkkk3dkkkkkk44kkkkkkd;kkkkkkk4ukkkkkku;kkkkkkk3ukkkkk",
"kkkkkku0kkkkkkk;dkkkkkk40kkkkkkd;kkkkkkk4ukkkkkku*kkkkkkk3ukkkkk"
};
